<?xml version="1.0" standalone="no"?>
<!DOCTYPE svg PUBLIC "-//W3C//DTD SVG 20010904//EN"
 "http://www.w3.org/TR/2001/REC-SVG-20010904/DTD/svg10.dtd">
<svg version="1.0" xmlns="http://www.w3.org/2000/svg"
 width="700.000000pt" height="700.000000pt" viewBox="0 0 700.000000 700.000000"
 preserveAspectRatio="xMidYMid meet">
<metadata>
Created by potrace 1.11, written by Peter Selinger 2001-2013
</metadata>
<g transform="translate(0.000000,700.000000) scale(0.100000,-0.100000)"
fill="#000000" stroke="none">
<path d="M3507 6239 c-577 -42 -1097 -264 -1415 -604 -283 -303 -402 -609
-402 -1033 0 -370 98 -637 327 -894 125 -140 277 -253 482 -357 244 -124 548
-221 1296 -412 577 -148 800 -241 965 -404 112 -109 145 -194 145 -370 -1 -99
-5 -131 -23 -184 -68 -190 -245 -336 -503 -415 -151 -46 -272 -60 -519 -60
-253 -1 -364 15 -552 78 l-98 33 -100 -193 c-55 -106 -100 -195 -100 -198 0
-9 188 -64 305 -90 244 -53 459 -76 717 -76 150 0 199 4 310 26 439 85 811
297 997 568 48 70 108 202 131 291 27 101 36 271 22 400 -60 545 -361 838
-1043 1014 -63 16 -252 57 -420 91 -790 160 -1120 269 -1366 454 -181 137
-309 345 -343 563 -15 95 -13 294 5 395 70 402 353 680 833 818 207 59 328 74
612 75 165 0 287 -5 345 -14 98 -14 204 -37 212 -44 2 -3 -43 -96 -101 -207
-58 -111 -106 -205 -106 -209 0 -5 30 -18 67 -30 324 -107 494 -326 538 -693
l6 -58 291 0 290 0 -7 83 c-20 239 -105 475 -235 648 -108 144 -298 298 -460
372 -36 17 -109 45 -163 62 -53 18 -100 35 -103 38 -3 3 44 100 105 216 61
116 111 214 111 219 0 10 -214 55 -365 77 -121 17 -403 36 -505 33 -36 0 -118
-5 -183 -9z"/>
<path d="M1500 2483 c0 -10 5 -85 10 -166 19 -272 73 -478 181 -687 170 -329
425 -578 779 -760 92 -47 263 -120 282 -120 6 0 248 456 248 469 0 4 -45 26
-100 48 -178 74 -348 184 -473 308 -214 212 -328 464 -358 795 l-12 130 -279
0 c-258 0 -278 -1 -278 -17z"/>
</g>
</svg>
